# xmcd
#
# Track frame offsets:
#	150
#	12849
#	29881
#	45256
#	59311
#	73097
#	88588
#	102287
#	115402
#	128905
#	138320
#	152976
#	161978
#	182585
#	198305
#
# Disc length: 2788 seconds
#
# Revision: 0
# Processed by: cddbd v1.5.1PL2 Copyright (c) Steve Scherf et al.
# Submitted via: audiograbber 1.82.02
#
DISCID=d30ae20f
DTITLE=Mark Coonradt - Country Favorites
DYEAR=1900
DGENRE=
TTITLE0=The Yellow Rose Of Texas
TTITLE1=Oh Carmen
TTITLE2=Goodnight Irene
TTITLE3=Duelling Banjos
TTITLE4=The Night They Drove Old Dixie Town
TTITLE5=Lucille
TTITLE6=Take It Easy, Nimms leicht
TTITLE7=The Littliest Cowboy
TTITLE8=My Rifle, My Pony And Me
TTITLE9=Wabash Cannonball
TTITLE10=Take A Letter, Maria
TTITLE11=A Thing Called Love
TTITLE12=High Noon
TTITLE13=Early Morning Rain
TTITLE14=Sea Of Heartbreak
EXTD=
EXTT0=
EXTT1=
EXTT2=
EXTT3=
EXTT4=
EXTT5=
EXTT6=
EXTT7=
EXTT8=
EXTT9=
EXTT10=
EXTT11=
EXTT12=
EXTT13=
EXTT14=
PLAYORDER=
